{"title":"Shaun the Sheep Season 1 Eps 1 20.rar","uid":7957973,"size":399176574,"categoryP":"video","categoryS":"tv_shows","magnet":"?xt=urn:btih:b55ea04b61640d3ece3efcea594b30323746ca74&amp;dn=Shaun+the+Sheep+Season+1+Eps+1+20.rar&amp;tr=udp%3A%2F%2Ftracker.openbittorrent.com%3A80&amp;tr=udp%3A%2F%2Fopen.demonii.com%3A1337&amp;tr=udp%3A%2F%2Ftracker.coppersurfer.tk%3A6969&amp;tr=udp%3A%2F%2Fexodus.desync.com%3A6969","seeders":0,"leechers":0,"uploader":"qarmaq","files":-1,"time":1356482874,"description":"Shaun the Sheep Season 2 Eps 1-20\n\nGeneral\n20Shaun.The.Sheep.S02E01.Abracadabra.Pdtv.Xvid-HamPL.avi\nFormat                         : AVI\nFormat/Info                    : Audio Video Interleave\nFile size                      : 18.5 MiB\nDuration                       : 6mn 58s\nOverall bit rate               : 370 Kbps\nWriting application            : VirtualDubMod 1.5.4.1 (build 2178/release)\nWriting library                : VirtualDub build 29896/release\n\nVideo\nID                             : 0\nFormat                         : MPEG-4 Visual\nFormat profile                 : Advanced Simple@L5\nFormat settings, BVOP          : 2\nFormat settings, QPel          : No\nFormat settings, GMC           : No warppoints\nFormat settings, Matrix        : Default (H.263)\nMuxing mode                    : Packed bitstream\nCodec ID                       : XVID\nCodec ID/Hint                  : XviD\nDuration                       : 6mn 58s\nBit rate                       : 265 Kbps\nWidth                          : 608 pixels\nHeight                         : 352 pixels\nDisplay aspect ratio           : 1.727\nFrame rate                     : 25.000 fps\nColor space                    : YUV\nChroma subsampling             : 4:2:0\nBit depth                      : 8 bits\nScan type                      : Progressive\nCompression mode               : Lossy\nBits/(Pixel*Frame)             : 0.049\nStream size                    : 13.2 MiB (71%)\nWriting library                : XviD 1.2.0.dev47 (UTC 2006-11-01)\n\nAudio\nID                             : 1\nFormat                         : AC-3\nFormat/Info                    : Audio Coding 3\nMode extension                 : CM (complete main)\nFormat settings, Endianness    : Big\nCodec ID                       : 2000\nDuration                       : 6mn 58s\nBit rate mode                  : Constant\nBit rate                       : 96.0 Kbps\nChannel(s)                     : 2 channels\nChannel positions              : Front: L R\nSampling rate                  : 48.0 KHz\nBit depth                      : 16 bits\nCompression mode               : Lossy\nStream size                    : 4.79 MiB (26%)\nAlignment                      : Aligned on interleaves\nInterleave, duration           : 40 ms (1.00 video frame)\nInterleave, preload duration   : 512 ms\n\n","torrent":{"xt":"urn:btih:b55ea04b61640d3ece3efcea594b30323746ca74","amp;dn":"Shaun+the+Sheep+Season+1+Eps+1+20.rar","amp;tr":["udp%3A%2F%2Ftracker.openbittorrent.com%3A80","udp%3A%2F%2Fopen.demonii.com%3A1337","udp%3A%2F%2Ftracker.coppersurfer.tk%3A6969","udp%3A%2F%2Fexodus.desync.com%3A6969"],"infoHash":"b55ea04b61640d3ece3efcea594b30323746ca74","infoHashBuffer":{"type":"Buffer","data":[181,94,160,75,97,100,13,62,206,62,252,234,89,75,48,50,55,70,202,116]},"announce":[],"urlList":[]}}